<svg width="19" height="19" viewBox="0 0 19 19" fill="none" xmlns="http://www.w3.org/2000/svg">
<path d="M9.2 18.64C4.14 18.64 0.0200001 14.52 0.0200001 9.46C0.0200001 4.4 4.14 0.279999 9.2 0.279999C14.26 0.279999 18.38 4.4 18.38 9.46C18.38 14.52 14.26 18.64 9.2 18.64ZM9.2 16.92C13.32 16.92 16.66 13.58 16.66 9.46C16.66 5.34 13.32 2 9.2 2C5.08 2 1.74 5.34 1.74 9.46C1.74 13.58 5.08 16.92 9.2 16.92ZM9.2 6.2C8.6 6.2 8.1 5.98 8.1 5.22C8.1 4.42 8.66 4.24 9.2 4.24C9.88 4.24 10.28 4.54 10.28 5.22C10.28 5.98 9.74 6.2 9.2 6.2ZM8.18 14.48V7.12H10.2V14.48H8.18Z" fill="black"/>
</svg>
